<?xml version="1.0" encoding="UTF-8"?>
<!DOCTYPE svg PUBLIC "-//W3C//DTD SVG 1.1//EN" "http://www.w3.org/Graphics/SVG/1.1/DTD/svg11.dtd">
<!-- Creator: CorelDRAW -->
<svg xmlns="http://www.w3.org/2000/svg" xml:space="preserve" width="300px" height="42px" version="1.1" style="shape-rendering:geometricPrecision; text-rendering:geometricPrecision; image-rendering:optimizeQuality; fill-rule:evenodd; clip-rule:evenodd"
viewBox="0 0 517.89 72.65"
 xmlns:xlink="http://www.w3.org/1999/xlink"
 xmlns:xodm="http://www.corel.com/coreldraw/odm/2003">
 <defs>
  <style type="text/css">
   <![CDATA[
    .fil0 {fill:#C2092A;fill-rule:nonzero}
   ]]>
  </style>
 </defs>
 <g id="Слой_x0020_1">
  <metadata id="CorelCorpID_0Corel-Layer"/>
  <polygon class="fil0" points="279.89,9.93 299.68,9.16 299.68,70.85 314.4,70.85 314.4,9.16 334.21,9.93 334.21,1.8 279.89,1.8 "/>
  <polygon class="fil0" points="480.32,1.8 480.32,70.85 495.04,70.85 495.04,9.16 517.89,9.93 517.89,1.8 "/>
  <polygon class="fil0" points="108.9,49.92 108.9,1.8 94.18,1.8 94.18,70.85 102,70.85 139.02,22.74 139.02,70.85 153.74,70.85 153.74,1.8 145.92,1.8 "/>
  <path class="fil0" d="M280.05 28.58c0,0 -5.33,0.28 -12.46,1.89l-10.38 -28.67 -13.4 0 -26.3 69.05 7.31 0c7.69,-14.66 27.73,-28.84 40.47,-32.65 0.95,-0.28 1.31,0.42 0.31,1.02 -12.14,7.17 -24.21,15.83 -29.68,24.4 5.65,-0.54 13.51,-2.31 21.24,-7.48 14.43,-9.66 22.89,-27.56 22.89,-27.56zm-34.2 10.68c-4.51,3.02 -7.97,6.53 -10.59,9.93l-0.04 -0.01 11.4 -32.55 0.42 0 6.36 18.49c-2.6,1.16 -5.15,2.54 -7.55,4.14z"/>
  <path class="fil0" d="M261.09 57.51l4.57 13.34 16.53 0 -8.61 -23.81c-3.99,4.94 -9.51,8.66 -12.49,10.47z"/>
  <path class="fil0" d="M371.6 0c-19.21,0 -35.08,14.2 -35.08,36.32 0,21.44 13.32,36.33 35.08,36.33 19.21,0 35.07,-14.89 35.07,-36.33 0,-22.12 -13.32,-36.32 -35.07,-36.32zm0 66.32c-13.01,0 -19.07,-13.43 -19.07,-30 0,-16.55 7.29,-30 19.07,-30 13.01,0 19.07,13.45 19.07,30 0,16.57 -7.3,30 -19.07,30z"/>
  <polygon class="fil0" points="62.46,1.8 40.27,47.88 19.45,1.8 8.6,1.8 0,70.85 8.19,70.85 13.75,24.48 32.88,68.27 38.8,68.27 60.61,22.81 65.81,70.85 80.53,70.85 73.04,1.8 "/>
  <path class="fil0" d="M440.05 1.81l-20.85 -0.02 0 69.06 14.71 0 0 -23.67c1.72,0.2 3.86,0.35 6.47,0.35 17.19,0 27.38,-10.44 27.38,-23 0,-14.07 -10.34,-22.72 -27.71,-22.72zm-3.03 39.42c-1.05,0 -2.11,-0.07 -3.11,-0.16l0 -32.95 3.11 0c11.49,0 15.93,7.2 15.93,16.41 0,9.23 -4.44,16.7 -15.93,16.7z"/>
  <path class="fil0" d="M191.42 1.81l-20.85 -0.02 0 69.06 14.71 0 0 -23.67c1.72,0.2 3.87,0.35 6.47,0.35 17.19,0 27.38,-10.44 27.38,-23 0,-14.07 -10.34,-22.72 -27.71,-22.72zm-3.03 39.42c-1.06,0 -2.1,-0.07 -3.11,-0.16l0 -32.95 3.11 0c11.49,0 15.93,7.2 15.93,16.41 0,9.23 -4.44,16.7 -15.93,16.7z"/>
 </g>
</svg>
